<svg width="270" height="270" viewBox="0 0 270 270" fill="none" xmlns="http://www.w3.org/2000/svg">
<rect width="270" height="270" rx="30" fill="white"/>
<rect x="5" y="5" width="260" height="260" rx="25" fill="url(#paint0_linear_259:107)" stroke="url(#paint1_linear_259:107)" stroke-width="10"/>
<rect x="10" y="10" width="250" height="250" rx="30" fill="white"/>
<line x1="162.946" y1="108" x2="259.945" y2="106.946" stroke="black" stroke-width="10"/>
<path d="M26 155.103H33.5609C33.6953 157.174 33.7961 159.078 33.8633 160.815C33.9978 162.486 34.1322 164.156 34.2666 165.827C35.8124 162.219 37.8286 159.379 40.3153 157.308C42.8692 155.169 46.2632 154.067 50.4974 154C54.5971 154 57.8903 155.036 60.3769 157.107C62.8637 159.178 64.3086 161.885 64.7119 165.226C66.3921 161.818 68.4419 159.112 70.8614 157.107C73.3481 155.103 76.6749 154.067 80.8418 154C85.2104 154 88.638 155.169 91.1247 157.508C93.6786 159.847 95.0227 162.853 95.1572 166.528V196.998H86.4873V170.437C86.3529 168.299 85.6136 166.495 84.2694 165.025C82.9925 163.488 80.8754 162.653 77.9183 162.519C73.8858 162.519 70.727 163.822 68.4419 166.428C66.1568 168.967 64.9471 172.241 64.8127 176.251V196.998H56.2437V170.437C56.1092 168.299 55.3363 166.495 53.925 165.025C52.5808 163.488 50.4974 162.653 47.6746 162.519C45.6584 162.519 43.8438 162.887 42.2308 163.622C40.6178 164.29 39.24 165.226 38.0975 166.428C36.9549 167.631 36.0812 169.068 35.4763 170.738C34.8715 172.409 34.569 174.246 34.569 176.251V196.998H26V155.103Z" fill="#F96465"/>
<path d="M142.514 192.087C140.498 193.891 138.045 195.327 135.155 196.396C132.265 197.465 129.308 198 126.284 198C123.192 198 120.269 197.432 117.513 196.296C114.825 195.093 112.472 193.523 110.456 191.585C108.44 189.581 106.827 187.242 105.617 184.569C104.475 181.897 103.903 179.057 103.903 176.05C103.903 173.043 104.475 170.203 105.617 167.531C106.827 164.858 108.44 162.519 110.456 160.515C112.472 158.51 114.791 156.94 117.412 155.804C120.101 154.601 122.957 154 125.981 154C130.753 154 134.886 155.437 138.381 158.31C141.943 161.116 144.497 164.825 146.043 169.435C143.959 170.17 141.574 171.072 138.885 172.141C136.197 173.21 133.408 174.346 130.518 175.549C127.628 176.685 124.738 177.821 121.848 178.957C118.958 180.093 116.27 181.128 113.783 182.064C114.926 184.336 116.572 186.173 118.723 187.576C120.941 188.913 123.394 189.581 126.082 189.581C127.897 189.581 129.711 189.247 131.526 188.579C133.408 187.91 134.92 187.008 136.062 185.872L142.514 192.087ZM135.256 167.431C134.449 165.76 133.173 164.524 131.425 163.722C129.678 162.853 127.897 162.419 126.082 162.419C124.133 162.419 122.318 162.787 120.638 163.522C119.025 164.257 117.614 165.259 116.404 166.528C115.194 167.731 114.22 169.134 113.481 170.738C112.808 172.342 112.472 173.979 112.472 175.649C112.472 175.983 112.472 176.217 112.472 176.351C112.54 176.484 112.573 176.585 112.573 176.651C114.321 175.983 116.202 175.248 118.219 174.446C120.302 173.578 122.352 172.743 124.368 171.941C126.384 171.072 128.334 170.27 130.215 169.535C132.097 168.733 133.777 168.032 135.256 167.431Z" fill="#F96465"/>
<path d="M153.492 155.103H161.053C161.187 157.174 161.288 159.078 161.355 160.815C161.49 162.486 161.624 164.156 161.759 165.827C163.304 162.219 165.489 159.345 168.311 157.207C171.201 155.069 174.73 154 178.897 154C183.131 154 186.525 155.169 189.079 157.508C191.633 159.847 192.977 162.853 193.111 166.528V196.998H184.441V170.437C184.307 168.299 183.568 166.495 182.223 165.025C180.879 163.488 178.762 162.653 175.872 162.519C173.856 162.519 172.008 162.887 170.328 163.622C168.647 164.29 167.202 165.226 165.993 166.428C164.783 167.631 163.808 169.068 163.069 170.738C162.397 172.409 162.061 174.246 162.061 176.251V196.998H153.492V155.103Z" fill="#F96465"/>
<path d="M244 197.9H236.742L235.733 186.273C234.188 189.681 232.003 192.487 229.181 194.692C226.425 196.897 222.897 198 218.595 198C214.294 198 210.866 196.864 208.312 194.592C205.826 192.254 204.515 189.213 204.381 185.472V155.103H212.95V181.663C213.084 183.734 213.824 185.505 215.168 186.975C216.579 188.445 218.73 189.28 221.62 189.481C223.636 189.481 225.484 189.147 227.164 188.478C228.845 187.743 230.29 186.774 231.499 185.572C232.709 184.369 233.65 182.932 234.322 181.262C234.994 179.591 235.33 177.754 235.33 175.749V155.103H244V197.9Z" fill="#F96465"/>
<path d="M70.3118 130.868H25L52.6011 91.797H36.5004C33.817 91.797 31.5936 91.0798 29.8302 89.6453C28.0668 88.2108 27.1851 86.2856 27.1851 83.8697V79H36.0404V80.4722C36.0404 81.7557 36.3471 82.5862 36.9605 82.9637C37.5738 83.3412 38.5705 83.5299 39.9506 83.5299H70.6568L43.8607 121.355H70.3118V130.868Z" fill="black"/>
<path d="M76.593 107.652C76.593 104.179 77.2447 100.932 78.5481 97.9124C79.9281 94.817 81.7682 92.1368 84.0683 89.8718C86.3684 87.5313 89.0135 85.6816 92.0036 84.3227C95.0704 82.9637 98.3288 82.2842 101.779 82.2842C104.079 82.2842 106.187 82.5862 108.104 83.1902C110.021 83.7187 111.669 84.3981 113.049 85.2286C114.429 86.0591 115.541 86.9274 116.385 87.8333C117.228 88.7393 117.803 89.5321 118.11 90.2115L118.57 83.5299H128V130.868H118.11V124.865C117.726 125.469 117.113 126.187 116.27 127.017C115.426 127.848 114.314 128.64 112.934 129.395C111.631 130.075 110.059 130.679 108.219 131.207C106.379 131.736 104.271 132 101.894 132C98.2138 132 94.802 131.358 91.6586 130.075C88.5918 128.716 85.9467 126.942 83.7233 124.752C81.4998 122.487 79.7364 119.882 78.4331 116.938C77.2063 113.994 76.593 110.898 76.593 107.652ZM86.4834 107.085C86.4834 109.275 86.8667 111.313 87.6334 113.201C88.4768 115.088 89.5885 116.712 90.9686 118.071C92.3486 119.429 93.997 120.524 95.9137 121.355C97.8305 122.11 99.9389 122.487 102.239 122.487C104.539 122.487 106.647 122.11 108.564 121.355C110.558 120.524 112.244 119.429 113.624 118.071C115.081 116.636 116.193 115.013 116.96 113.201C117.726 111.313 118.11 109.275 118.11 107.085C118.11 104.896 117.726 102.895 116.96 101.083C116.193 99.1959 115.081 97.5726 113.624 96.2137C112.244 94.8547 110.558 93.7977 108.564 93.0427C106.647 92.2123 104.539 91.797 102.239 91.797C99.9389 91.797 97.8305 92.2123 95.9137 93.0427C93.997 93.7977 92.3486 94.8547 90.9686 96.2137C89.5885 97.5726 88.4768 99.1959 87.6334 101.083C86.8667 102.895 86.4834 104.896 86.4834 107.085Z" fill="black"/>
<defs>
<linearGradient x1="270" y1="0" x2="0" y2="270" gradientUnits="userSpaceOnUse">
<stop stopColor="#F38640"/>
<stop offset="0.514468" stopColor="#F96465"/>
<stop offset="1" stopColor="#FF4588"/>
</linearGradient>
<linearGradient x1="38.5" y1="242" x2="244.5" y2="40" gradientUnits="userSpaceOnUse">
<stop stopColor="#FF4588"/>
<stop offset="0.524884" stopColor="#F96465"/>
<stop offset="1" stopColor="#F38640"/>
</linearGradient>
</defs>
</svg>
