<svg width="512" height="512" viewBox="0 0 512 512" fill="none" xmlns="http://www.w3.org/2000/svg">

<rect width="512" height="512" rx="57" fill="white"/>

<line x1="307.56" y1="193.962" x2="492.891" y2="191.948" stroke="black" stroke-width="20"/>

<path d="M46 278.13H60.4628C60.72 282.131 60.9128 285.81 61.0414 289.166C61.2985 292.393 61.5556 295.62 61.8127 298.847C64.7696 291.877 68.6263 286.391 73.383 282.39C78.2682 278.259 84.7604 276.129 92.8596 276C100.702 276 107.001 278.001 111.758 282.002C116.514 286.004 119.278 291.232 120.05 297.686C123.264 291.103 127.185 285.875 131.813 282.002C136.57 278.13 142.933 276.129 150.904 276C159.26 276 165.817 278.259 170.573 282.777C175.459 287.295 178.03 293.103 178.287 300.203V359.064H161.703V307.754C161.446 303.623 160.032 300.138 157.46 297.298C155.018 294.33 150.968 292.716 145.312 292.458C137.598 292.458 131.556 294.975 127.185 300.009C122.814 304.914 120.5 311.239 120.243 318.984V359.064H103.851V307.754C103.594 303.623 102.116 300.138 99.4161 297.298C96.8449 294.33 92.8596 292.716 87.4602 292.458C83.6034 292.458 80.1323 293.168 77.0469 294.588C73.9615 295.879 71.3261 297.686 69.1406 300.009C66.9551 302.333 65.2838 305.108 64.1268 308.335C62.9697 311.562 62.3912 315.112 62.3912 318.984V359.064H46V278.13Z" fill="#F96465"/>

<path d="M268.874 349.576C265.017 353.061 260.325 355.837 254.797 357.902C249.269 359.967 243.612 361 237.827 361C231.913 361 226.321 359.903 221.05 357.708C215.908 355.385 211.408 352.352 207.551 348.608C203.695 344.736 200.609 340.218 198.295 335.055C196.11 329.891 195.017 324.405 195.017 318.597C195.017 312.788 196.11 307.302 198.295 302.139C200.609 296.976 203.695 292.458 207.551 288.585C211.408 284.713 215.844 281.68 220.857 279.485C226 277.162 231.463 276 237.249 276C246.376 276 254.283 278.775 260.968 284.326C267.781 289.747 272.666 296.911 275.623 305.818C271.638 307.238 267.074 308.98 261.932 311.046C256.789 313.111 251.454 315.305 245.926 317.629C240.398 319.823 234.87 322.017 229.342 324.212C223.814 326.406 218.672 328.407 213.915 330.214C216.101 334.603 219.25 338.153 223.364 340.863C227.607 343.445 232.299 344.736 237.441 344.736C240.912 344.736 244.384 344.09 247.855 342.8C251.454 341.509 254.347 339.766 256.532 337.572L268.874 349.576ZM254.99 301.945C253.447 298.718 251.004 296.33 247.662 294.781C244.319 293.103 240.912 292.264 237.441 292.264C233.713 292.264 230.242 292.974 227.028 294.394C223.943 295.814 221.243 297.75 218.929 300.203C216.615 302.526 214.751 305.237 213.337 308.335C212.051 311.433 211.408 314.595 211.408 317.822C211.408 318.468 211.408 318.92 211.408 319.178C211.537 319.436 211.601 319.629 211.601 319.759C214.944 318.468 218.543 317.048 222.4 315.499C226.385 313.821 230.306 312.207 234.163 310.658C238.02 308.98 241.748 307.431 245.348 306.011C248.947 304.462 252.161 303.107 254.99 301.945Z" fill="#F96465"/>

<path d="M289.872 278.13H304.335C304.592 282.131 304.785 285.81 304.914 289.166C305.171 292.393 305.428 295.62 305.685 298.847C308.642 291.877 312.82 286.327 318.219 282.196C323.747 278.065 330.497 276 338.467 276C346.567 276 353.059 278.259 357.944 282.777C362.829 287.295 365.4 293.103 365.657 300.203V359.064H349.073V307.754C348.816 303.623 347.402 300.138 344.831 297.298C342.26 294.33 338.21 292.716 332.682 292.458C328.825 292.458 325.29 293.168 322.076 294.588C318.862 295.879 316.098 297.686 313.784 300.009C311.47 302.333 309.606 305.108 308.192 308.335C306.906 311.562 306.263 315.112 306.263 318.984V359.064H289.872V278.13Z" fill="#F96465"/>

<path d="M463 360.806H449.116L447.187 338.346C444.23 344.929 440.052 350.351 434.653 354.61C429.382 358.87 422.633 361 414.405 361C406.177 361 399.621 358.806 394.735 354.417C389.979 349.899 387.472 344.026 387.215 336.797V278.13H403.606V329.44C403.863 333.441 405.277 336.862 407.848 339.702C410.548 342.541 414.662 344.155 420.19 344.542C424.047 344.542 427.582 343.897 430.796 342.606C434.01 341.186 436.774 339.314 439.088 336.991C441.402 334.667 443.202 331.892 444.488 328.665C445.773 325.438 446.416 321.888 446.416 318.016V278.13H463V360.806Z" fill="#F96465"/>

<path d="M130.664 233.821H44L96.7904 158.628H65.996C60.8636 158.628 56.611 157.248 53.2383 154.487C49.8656 151.726 48.1792 148.021 48.1792 143.372V134H65.1162V136.833C65.1162 139.303 65.7027 140.902 66.8758 141.628C68.049 142.355 69.9553 142.718 72.5948 142.718H131.324L80.0734 215.513H130.664V233.821Z" fill="black"/>

<path d="M142.678 189.141C142.678 182.457 143.924 176.209 146.417 170.397C149.057 164.44 152.576 159.282 156.975 154.923C161.374 150.419 166.434 146.859 172.153 144.244C178.018 141.628 184.25 140.321 190.849 140.321C195.248 140.321 199.281 140.902 202.947 142.064C206.613 143.081 209.766 144.389 212.405 145.987C215.045 147.585 217.171 149.256 218.784 151C220.397 152.744 221.497 154.269 222.083 155.577L222.963 142.718H241V233.821H222.083V222.269C221.35 223.432 220.177 224.812 218.564 226.41C216.951 228.009 214.825 229.534 212.185 230.987C209.692 232.295 206.686 233.457 203.167 234.474C199.648 235.491 195.615 236 191.069 236C184.03 236 177.505 234.765 171.493 232.295C165.627 229.679 160.568 226.265 156.315 222.051C152.063 217.692 148.69 212.679 146.197 207.013C143.851 201.346 142.678 195.389 142.678 189.141ZM161.594 188.051C161.594 192.265 162.328 196.188 163.794 199.821C165.407 203.453 167.533 206.577 170.173 209.192C172.812 211.808 175.965 213.915 179.631 215.513C183.297 216.966 187.33 217.692 191.729 217.692C196.128 217.692 200.161 216.966 203.827 215.513C207.639 213.915 210.865 211.808 213.505 209.192C216.291 206.432 218.417 203.308 219.884 199.821C221.35 196.188 222.083 192.265 222.083 188.051C222.083 183.838 221.35 179.987 219.884 176.5C218.417 172.868 216.291 169.744 213.505 167.128C210.865 164.513 207.639 162.479 203.827 161.026C200.161 159.427 196.128 158.628 191.729 158.628C187.33 158.628 183.297 159.427 179.631 161.026C175.965 162.479 172.812 164.513 170.173 167.128C167.533 169.744 165.407 172.868 163.794 176.5C162.328 179.987 161.594 183.838 161.594 188.051Z" fill="black"/>

</svg>


